<svg width="417" height="404" viewBox="0 0 417 404" fill="none" xmlns="http://www.w3.org/2000/svg">
  <path d="M238.667 58.2333C241.195 62.1667 242.997 66.2333 244.399 70.3H236.868C237.776 68.2333 238.236 66.0333 238.667 63.7C238.667 61.4333 238.667 59.2333 238.667 58.2333Z" fill="url(#paint0_linear)"/>
  <path d="M226.27 95.6333L198.27 72.4667C198.711 74.5667 199.055 76.6667 199.271 78.7667C199.487 80.8667 199.627 83.0333 199.627 85.1667C199.627 89.2 199.059 93.1667 198.003 96.9667C196.947 100.767 195.491 104.533 193.607 108.1C192.31 110.567 190.8 113 189.11 115.4C187.42 117.8 185.533 120.167 183.49 122.467C178.744 128.2 173.085 133.6 166.574 138.733C165.156 139.733 163.667 140.767 162.195 141.8L188.333 151.633C190.822 150.233 193.279 148.667 195.645 147.033C203.856 141.467 211.086 134.833 217.055 127.4C218.515 125.633 219.896 123.833 221.236 122.033C221.679 121.467 222.099 120.933 222.53 120.366L226.27 95.6333Z" fill="url(#paint1_linear)"/>
  <path d="M270.333 101.033C266.853 101.033 263.561 99.8 261.033 97.4333C258.562 95.0667 256.999 91.5667 256.999 87.9333V83.4667H235.799V65.3667H220.799V83.4667H193.8V65.3667H178.8V83.4667H155.8V100.533H178.8V107.033C178.8 113.4 182.124 118.633 188.799 122.033C191.556 123.4 194.745 124.033 197.8 124.033C203.467 124.033 208.933 121.633 214.065 117.133C219.2 112.533 222.4 106.3 222.4 100.533V93.8667H235.8V107.033C235.8 110.433 237.442 114.333 239.799 117.133C242.154 119.933 245.193 121.7 248.8 121.7C254.8 121.7 260.4 118.333 265.333 113.4C270.333 108.333 273.6 102.233 273.6 96.6667V90.4667C273.6 88.5667 273.6 86.6667 273.6 84.7667C273.2 86.2667 271.8 87.5 270.333 88.4667V101.033Z" fill="url(#paint2_linear)"/>
  <defs>
    <linearGradient id="paint0_linear" x1="265.682" y1="19.9324" x2="209.182" y2="144.132" gradientUnits="userSpaceOnUse">
      <stop stop-color="#FFD782"/>
      <stop offset="1" stop-color="#FFE3A8"/>
    </linearGradient>
    <linearGradient id="paint1_linear" x1="251.091" y1="17.7037" x2="190.803" y2="163.887" gradientUnits="userSpaceOnUse">
      <stop stop-color="#FF5E69"/>
      <stop offset="1" stop-color="#FF7C84"/>
    </linearGradient>
    <linearGradient id="paint2_linear" x1="256.333" y1="20.5732" x2="245.273" y2="97.6963" gradientUnits="userSpaceOnUse">
      <stop stop-color="#41C7E0"/>
      <stop offset="1" stop-color="#79DEF1"/>
    </linearGradient>
  </defs>
</svg>
